<?xml version="1.0" standalone="no"?>
<!DOCTYPE svg PUBLIC "-//W3C//DTD SVG 20010904//EN"
 "http://www.w3.org/TR/2001/REC-SVG-20010904/DTD/svg10.dtd">
<svg version="1.0" xmlns="http://www.w3.org/2000/svg"
 width="512.000000pt" height="512.000000pt" viewBox="0 0 512.000000 512.000000"
 preserveAspectRatio="xMidYMid meet">

<g transform="translate(0.000000,512.000000) scale(0.100000,-0.100000)"
fill="#0ea5e9" stroke="none">
<path d="M2876 4405 c-99 -57 -183 -108 -188 -113 -5 -5 -83 -436 -173 -958
-196 -1137 -231 -1298 -340 -1575 -116 -294 -314 -562 -490 -664 -174 -101
-368 -82 -496 48 -88 90 -168 282 -199 482 -28 174 -8 550 45 875 122 744 399
1279 760 1466 l56 29 104 203 c58 112 105 205 105 208 0 2 -230 3 -511 2
l-511 -3 -104 -200 c-57 -110 -104 -203 -104 -207 0 -5 116 -8 258 -8 l259 0
-81 -83 c-293 -300 -455 -661 -575 -1279 -55 -282 -72 -442 -78 -718 -6 -284
6 -416 53 -595 93 -361 264 -593 497 -675 87 -31 276 -39 379 -16 94 21 203
69 298 131 147 96 353 327 485 545 22 35 35 49 38 40 97 -318 183 -477 317
-589 132 -110 246 -146 440 -138 106 4 138 9 215 36 405 140 794 667 988 1336
76 262 142 608 172 905 21 205 16 605 -9 740 -40 209 -119 433 -204 574 -80
134 -261 306 -322 306 -13 0 -44 -48 -112 -172 -51 -95 -94 -178 -96 -184 -2
-7 18 -29 44 -50 154 -127 272 -343 330 -609 21 -99 25 -434 6 -600 -60 -533
-165 -965 -307 -1261 -113 -236 -303 -469 -440 -541 -192 -100 -376 -78 -501
61 -88 97 -166 299 -195 505 -16 115 -5 454 20 641 11 80 99 605 195 1167 97
562 176 1027 176 1033 0 20 -28 7 -204 -95z"/>
</g>
</svg>
